<svg width="1080" height="621" viewBox="0 0 1080 621" fill="none" xmlns="http://www.w3.org/2000/svg">
<path d="M919.44 87.2948H869.26C868.991 81.213 863.98 76.3611 857.82 76.3611C854.571 76.3611 851.644 77.7158 849.558 79.883C846.912 74.9876 841.728 71.6599 835.764 71.6599C835.02 71.6599 834.294 71.7295 833.577 71.8298C831.772 58.5878 820.405 48.3806 806.643 48.3806C804.625 48.3806 802.66 48.6068 800.767 49.0229C796.641 41.5061 788.645 36.407 779.451 36.407C768.851 36.407 759.861 43.1953 756.544 52.6451C754.18 51.6607 751.589 51.113 748.868 51.113C737.847 51.113 728.912 60.0303 728.912 71.0306C728.912 72.178 729.031 73.296 729.218 74.3904C728.776 74.3557 728.332 74.3231 727.881 74.3231C719.941 74.3231 713.311 79.873 711.641 87.2948H650.691" fill="white"/>
<path d="M919.44 87.2948H869.26C868.991 81.213 863.98 76.3611 857.82 76.3611C854.571 76.3611 851.644 77.7158 849.558 79.883C846.912 74.9876 841.728 71.6599 835.764 71.6599C835.02 71.6599 834.294 71.7295 833.577 71.8298C831.772 58.5878 820.405 48.3806 806.643 48.3806C804.625 48.3806 802.66 48.6068 800.767 49.0229C796.641 41.5061 788.645 36.407 779.451 36.407C768.851 36.407 759.861 43.1953 756.544 52.6451C754.18 51.6607 751.589 51.113 748.868 51.113C737.847 51.113 728.912 60.0303 728.912 71.0306C728.912 72.178 729.031 73.296 729.218 74.3904C728.776 74.3557 728.332 74.3231 727.881 74.3231C719.941 74.3231 713.311 79.873 711.641 87.2948H650.691" stroke="#0B1427" stroke-width="1.2" stroke-miterlimit="10"/>
<path d="M700.293 99.01H770.967" stroke="#0B1427" stroke-width="1.2" stroke-miterlimit="10"/>
<path d="M750.674 108.126H760.644" stroke="#0B1427" stroke-width="1.2" stroke-miterlimit="10"/>
<path d="M814.762 108.126H887.396" stroke="#0B1427" stroke-width="1.2" stroke-miterlimit="10"/>
<path d="M342.111 93.0176H317.384C315.378 91.2456 312.765 90.2238 309.998 90.2238C309.996 90.2238 309.84 90.2339 309.763 90.2356L307.363 90.2855L307.736 87.9186C307.907 86.8384 307.993 85.7416 307.993 84.6585C307.993 73.2036 298.656 63.8838 287.179 63.8838C279.174 63.8838 271.786 68.5549 268.357 75.7834L267.442 77.7141L265.569 76.6808C263.104 75.3204 260.306 74.6014 257.477 74.6014C249.183 74.6014 242.055 80.7738 240.897 88.9595L240.536 91.5135L238.145 90.5346C236.829 89.9955 235.444 89.7224 234.028 89.7224C231.074 89.7224 228.274 90.9533 226.258 93.0176H156.209" fill="white"/>
<path d="M342.111 93.0176H317.384C315.378 91.2456 312.765 90.2238 309.998 90.2238C309.996 90.2238 309.84 90.2339 309.763 90.2356L307.363 90.2855L307.736 87.9186C307.907 86.8384 307.993 85.7416 307.993 84.6585C307.993 73.2036 298.656 63.8838 287.179 63.8838C279.174 63.8838 271.786 68.5549 268.357 75.7834L267.442 77.7141L265.569 76.6808C263.104 75.3204 260.306 74.6014 257.477 74.6014C249.183 74.6014 242.055 80.7738 240.897 88.9595L240.536 91.5135L238.145 90.5346C236.829 89.9955 235.444 89.7224 234.028 89.7224C231.074 89.7224 228.274 90.9533 226.258 93.0176H156.209" stroke="#0B1427" stroke-width="1.2" stroke-miterlimit="10"/>
<path d="M195.182 98.8147H256.377" stroke="#0B1427" stroke-width="1.2" stroke-miterlimit="10"/>
<path d="M288.363 106.57H314.56" stroke="#0B1427" stroke-width="1.2" stroke-miterlimit="10"/>
<path d="M238.408 112.277H291.531" stroke="#0B1427" stroke-width="1.2" stroke-miterlimit="10"/>
<path d="M479.075 41.6497H453.142C451.544 38.7419 448.45 36.7693 444.893 36.7675C446.207 34.6967 446.97 32.2435 446.97 29.6112C446.97 22.21 440.959 16.2098 433.543 16.2098C429.001 16.2098 424.988 18.4637 422.559 21.9096C422.15 21.6387 421.729 21.3809 421.29 21.1429C413.362 16.8456 403.445 19.7772 399.139 27.6904C397.535 30.6391 396.938 33.8631 397.228 36.9703H397.156C393.715 36.9703 390.72 38.8582 389.14 41.6497H316.332" fill="white"/>
<path d="M479.075 41.6497H453.142C451.544 38.7419 448.45 36.7693 444.893 36.7675C446.207 34.6967 446.97 32.2435 446.97 29.6112C446.97 22.21 440.959 16.2098 433.543 16.2098C429.001 16.2098 424.988 18.4637 422.559 21.9096C422.15 21.6387 421.729 21.3809 421.29 21.1429C413.362 16.8456 403.445 19.7772 399.139 27.6904C397.535 30.6391 396.938 33.8631 397.228 36.9703H397.156C393.715 36.9703 390.72 38.8582 389.14 41.6497H316.332" stroke="#0B1427" stroke-width="1.2" stroke-miterlimit="10"/>
<path d="M362.121 53.5782H404.927" stroke="#0B1427" stroke-width="1.2" stroke-miterlimit="10"/>
<path d="M430.67 53.5782H438.821" stroke="#0B1427" stroke-width="1.2" stroke-miterlimit="10"/>
<path d="M844.486 381.267C870.476 381.267 891.545 360.238 891.545 334.297C891.545 308.356 870.476 287.327 844.486 287.327C818.497 287.327 797.428 308.356 797.428 334.297C797.428 360.238 818.497 381.267 844.486 381.267Z" fill="#E7742E"/>
<path d="M884.101 411.163C898.805 405.192 905.875 388.453 899.892 373.777C893.909 359.1 877.139 352.044 862.435 358.015C847.731 363.987 840.661 380.726 846.644 395.402C852.627 410.078 869.397 417.135 884.101 411.163Z" fill="#E7742E"/>
<path d="M795.467 405.382C814.663 405.382 830.224 389.85 830.224 370.691C830.224 351.531 814.663 336 795.467 336C776.272 336 760.711 351.531 760.711 370.691C760.711 389.85 776.272 405.382 795.467 405.382Z" fill="#E7742E"/>
<path d="M286.748 438.201C300.61 438.201 311.846 426.986 311.846 413.151C311.846 399.316 300.61 388.1 286.748 388.1C272.887 388.1 261.65 399.316 261.65 413.151C261.65 426.986 272.887 438.201 286.748 438.201Z" fill="#E7742E"/>
<path d="M270.308 453.329C278.67 452.006 284.375 444.168 283.05 435.822C281.725 427.475 273.872 421.781 265.51 423.104C257.148 424.426 251.443 432.264 252.768 440.611C254.093 448.957 261.946 454.651 270.308 453.329Z" fill="#E7742E"/>
<path d="M309.386 449.286C319.624 449.286 327.923 441.003 327.923 430.784C327.923 420.566 319.624 412.282 309.386 412.282C299.149 412.282 290.85 420.566 290.85 430.784C290.85 441.003 299.149 449.286 309.386 449.286Z" fill="#E7742E"/>
<path d="M212.808 352.044C255.869 345.069 285.111 304.572 278.123 261.592C271.134 218.612 230.561 189.425 187.5 196.4C144.439 203.375 115.197 243.872 122.185 286.852C129.174 329.832 169.747 359.02 212.808 352.044Z" fill="#E7742E"/>
<path d="M177.154 354.561C189.597 346.154 192.856 329.27 184.432 316.851C176.009 304.432 159.093 301.18 146.651 309.587C134.208 317.995 130.95 334.878 139.373 347.297C147.796 359.717 164.712 362.969 177.154 354.561Z" fill="#E7742E"/>
<path d="M249.911 368.644C281.737 363.627 303.463 333.808 298.437 302.042C293.41 270.275 263.535 248.59 231.709 253.607C199.882 258.624 178.157 288.443 183.183 320.209C188.209 351.976 218.084 373.661 249.911 368.644Z" fill="#E7742E"/>
<path d="M227.298 489.732L220.415 405.773L247.828 376.072C248.34 376.084 248.838 376.148 249.353 376.148C283.98 376.148 312.05 348.132 312.05 313.57C312.05 289.155 298.011 268.061 277.579 257.747C269.651 222.941 238.522 196.938 201.251 196.938C157.985 196.938 122.911 231.945 122.911 275.129C122.911 294.114 129.699 311.511 140.973 325.055C139.864 328.154 139.151 331.443 139.151 334.922C139.151 351.205 152.375 364.405 168.688 364.405C170.332 364.405 171.916 364.18 173.486 363.922L205.397 400.392L200.391 489.732H103.377H227.298ZM205.397 378.988L176.981 363.081C183.074 361.292 188.316 357.651 192.079 352.739C194.984 353.078 197.926 353.29 200.92 353.303C202.959 355.777 205.23 358.043 207.621 360.178L205.397 378.988ZM220.415 388.64L217.753 367.555C225.081 371.839 233.333 374.7 242.168 375.707L220.415 388.64Z" stroke="#0B1427" stroke-width="1.2" stroke-miterlimit="10"/>
<path d="M299.778 489.732L297.324 459.798L307.097 449.209C307.28 449.214 307.457 449.237 307.641 449.237C319.986 449.237 329.994 439.248 329.994 426.926C329.994 418.221 324.989 410.701 317.704 407.023C314.878 394.614 303.779 385.343 290.491 385.343C275.066 385.343 262.561 397.824 262.561 413.221C262.561 416.545 263.174 419.719 264.244 422.675C259.632 425.395 256.529 430.394 256.529 436.129C256.529 444.762 263.541 451.761 272.19 451.761C276.337 451.761 280.097 450.14 282.899 447.514L291.969 457.88L290.185 489.732H227.297H299.778ZM291.969 450.249L284.344 445.98C285.564 444.482 286.512 442.756 287.112 440.874C288.184 441.003 289.268 441.087 290.373 441.092C291.1 441.974 291.91 442.782 292.762 443.543L291.969 450.249ZM297.324 453.69L296.375 446.173C298.987 447.7 301.929 448.72 305.079 449.079L297.324 453.69Z" stroke="#0B1427" stroke-width="1.2" stroke-miterlimit="10"/>
<path d="M330.959 489.732H299.779H330.959ZM976.378 489.732H852.761L847.765 428.79L863.33 411.926C867.999 414.672 873.373 416.354 879.185 416.354C896.538 416.354 910.604 402.313 910.604 384.993C910.604 370.869 901.189 359.067 888.327 355.14C890.964 349.051 892.44 342.344 892.44 335.289C892.44 307.62 869.968 285.19 842.246 285.19C815.196 285.19 793.206 306.561 792.152 333.301C775.293 336.799 762.62 351.7 762.62 369.565C762.62 390.028 779.24 406.618 799.743 406.618C806.01 406.618 811.824 404.921 817.002 402.183L836.864 424.884L833.231 489.732H750.763H976.378ZM836.864 409.347L820.573 400.227C826.268 396.365 830.785 390.939 833.615 384.598C835.61 384.944 837.644 385.159 839.712 385.262L836.864 409.347ZM847.765 416.354L843.847 385.309C845.166 385.268 846.482 385.213 847.773 385.071C847.798 394.918 852.454 403.592 859.587 409.325L847.765 416.354Z" stroke="#0B1427" stroke-width="1.2" stroke-miterlimit="10"/>
<path d="M714.626 502.029H365.126C361.871 502.029 359.232 499.395 359.232 496.147V491.113C359.232 475.876 371.608 463.524 386.874 463.524H692.878C708.144 463.524 720.52 475.876 720.52 491.113V496.147C720.52 499.395 717.881 502.029 714.626 502.029Z" stroke="#0B1427" stroke-width="1.2" stroke-miterlimit="10"/>
<path d="M714.626 502.029H365.126C361.871 502.029 359.232 499.395 359.232 496.147V489.483H720.52V496.147C720.52 499.395 717.881 502.029 714.626 502.029Z" stroke="#0B1427" stroke-width="1.2" stroke-miterlimit="10" stroke-linejoin="round"/>
<path d="M378.757 582.21H369.873C367.251 582.21 365.125 580.088 365.125 577.471V502.029H383.505V577.471C383.505 580.088 381.379 582.21 378.757 582.21Z" stroke="#0B1427" stroke-width="1.2" stroke-miterlimit="10" stroke-linejoin="round"/>
<path d="M405.597 552.682H396.713C394.09 552.682 391.965 550.56 391.965 547.943V502.029H410.345V547.943C410.345 550.56 408.219 552.682 405.597 552.682Z" stroke="#0B1427" stroke-width="1.2" stroke-miterlimit="10" stroke-linejoin="round"/>
<path d="M700.994 582.21H709.878C712.501 582.21 714.626 580.088 714.626 577.471V502.029H696.246V577.471C696.246 580.088 698.372 582.21 700.994 582.21Z" fill="#DEDEDE" stroke="#0B1427" stroke-width="1.2" stroke-miterlimit="10" stroke-linejoin="round"/>
<path d="M674.156 552.682H683.041C685.663 552.682 687.788 550.56 687.788 547.943V502.029H669.408V547.943C669.408 550.56 671.534 552.682 674.156 552.682Z" stroke="#0B1427" stroke-width="1.2" stroke-miterlimit="10" stroke-linejoin="round"/>
<path d="M647.289 569.843H690.35" stroke="#0B1427" stroke-width="1.2" stroke-miterlimit="10"/>
<path d="M702.921 499.392H695.523C685.231 499.392 676.724 507.4 676.125 517.652L673.082 569.66C672.398 581.363 681.724 591.228 693.473 591.228H711.874L702.921 499.392ZM683.174 580.541C680.471 577.682 679.109 573.947 679.339 570.024L682.382 518.016C682.786 511.079 688.559 505.646 695.523 505.646H697.233L704.968 584.974H693.473C689.534 584.974 685.876 583.399 683.174 580.541Z" fill="#E7742E" stroke="#0B1427" stroke-width="1.2" stroke-miterlimit="10" stroke-linejoin="round"/>
<path d="M688.659 495.533L690.087 500.728H695.637L693.965 494.678C693.256 492.114 695.189 489.58 697.855 489.58C700.521 489.58 702.455 492.114 701.746 494.678L700.073 500.728H704.853L706.4 495.903C708.302 489.968 703.865 483.903 697.62 483.903H697.549C691.466 483.903 687.051 489.679 688.659 495.533Z" fill="#E7742E" stroke="#0B1427" stroke-width="1.2" stroke-miterlimit="10" stroke-linejoin="round"/>
<path d="M722.041 596.374H791.876" stroke="#0B1427" stroke-width="1.2" stroke-miterlimit="10"/>
<path d="M763.092 584.518H780.103" stroke="#0B1427" stroke-width="1.2" stroke-miterlimit="10"/>
<path d="M655.613 580.36H669.043" stroke="#0B1427" stroke-width="1.2" stroke-miterlimit="10"/>
<path d="M688.021 512.349L694.925 578.53C695.677 585.746 701.773 591.228 709.043 591.228H733.361C747.996 591.228 759.707 579.105 759.168 564.511V564.511C758.706 551.979 753.692 540.042 745.06 530.926L731.285 516.377C723.462 508.114 712.572 503.431 701.179 503.431H696.076C691.272 503.431 687.523 507.581 688.021 512.349Z" fill="#E7742E" stroke="#0B1427" stroke-width="1.2" stroke-miterlimit="10" stroke-linejoin="round"/>
<path d="M701.694 548.522L698.352 548.571C693.872 548.607 690.331 552.372 690.579 556.836L691.719 577.38C691.958 581.693 695.313 585.164 699.211 585.133L704.763 585.066C708.661 585.034 711.627 581.512 711.388 577.199L710.241 556.525C709.99 552.008 706.227 548.485 701.694 548.522Z" fill="#E7742E" stroke="#0B1427" stroke-width="1.2" stroke-miterlimit="10" stroke-linejoin="round"/>
<path d="M707.828 568.88L691.667 569.011C688.453 569.037 685.689 566.176 685.492 562.621L685.063 554.893C684.86 551.239 687.758 548.158 691.424 548.129L708.308 547.992C710.647 547.973 712.589 549.792 712.719 552.123L713.289 562.396C713.486 565.951 711.041 568.854 707.828 568.88Z" fill="#E7742E" stroke="#0B1427" stroke-width="1.2" stroke-miterlimit="10" stroke-linejoin="round"/>
<path d="M691.998 562.574L701.414 562.498" stroke="#0B1427" stroke-width="1.2" stroke-miterlimit="10"/>
<path d="M755.122 536.37C754.883 535.971 754.628 535.554 754.354 535.118C751.651 530.811 748.485 526.809 744.987 523.114L736.244 513.88C727.488 504.633 715.301 499.392 702.551 499.392H695.098C690.293 499.392 686.545 503.542 687.042 508.31L687.628 511.713L688.02 512.349C695.495 512.349 702.286 516.693 705.407 523.471L710.706 534.978C713.039 540.044 718.114 543.29 723.701 543.29H751.183C754.745 543.29 756.95 539.421 755.122 536.37Z" fill="#E7742E" stroke="#0B1427" stroke-width="1.2" stroke-miterlimit="10" stroke-linejoin="round"/>
<path d="M744.452 538.274H735.739C734.684 538.274 733.828 537.42 733.828 536.367C733.828 535.313 734.684 534.46 735.739 534.46H744.452C745.507 534.46 746.363 535.313 746.363 536.367C746.363 537.42 745.507 538.274 744.452 538.274Z" fill="#E7742E" stroke="#0B1427" stroke-width="1.2" stroke-miterlimit="10"/>
<path d="M709.043 591.228C719.437 591.228 726.949 581.312 724.114 571.334L717.614 548.458" stroke="#0B1427" stroke-width="1.2" stroke-miterlimit="10" stroke-linecap="round" stroke-linejoin="round"/>
<path d="M733.348 558.501H758.451" stroke="#0B1427" stroke-width="1.2" stroke-miterlimit="10" stroke-linecap="round" stroke-linejoin="round"/>
<path d="M750.732 584.518H736.512" stroke="#0B1427" stroke-width="1.2" stroke-miterlimit="10" stroke-linecap="round" stroke-linejoin="round"/>
<path d="M606.691 386.513L612.07 447.014C612.722 454.353 605.905 460.129 598.754 458.298L568.043 450.436V436.916L592.814 436.9L571.624 386.513H606.691Z" fill="white" stroke="#0B1427" stroke-width="1.2" stroke-miterlimit="10"/>
<path d="M599.871 436.543L592.816 436.9" stroke="#0B1427" stroke-width="1.2" stroke-miterlimit="10" stroke-linecap="round"/>
<path d="M474.447 386.513L469.069 447.014C468.416 454.353 475.233 460.129 482.385 458.298L513.095 450.436V436.916L488.325 436.9L509.514 386.513H474.447Z" fill="white" stroke="#0B1427" stroke-width="1.2" stroke-miterlimit="10"/>
<path d="M481.271 436.543L488.326 436.9" stroke="#0B1427" stroke-width="1.2" stroke-miterlimit="10" stroke-linecap="round"/>
<path d="M469.973 407.061H611.171L609.165 392.79C605.395 365.973 582.403 346.024 555.264 346.024H525.935C498.874 346.024 475.923 365.861 472.063 392.587L469.973 407.061Z" fill="white" stroke="#0B1427" stroke-width="1.2" stroke-miterlimit="10"/>
<path d="M540.57 375.225C532.32 375.225 525.631 368.551 525.631 360.318V349.985H555.51V360.318C555.51 368.551 548.821 375.225 540.57 375.225Z" fill="white" stroke="#0B1427" stroke-width="1.2" stroke-miterlimit="10"/>
<path d="M564.364 335.464H516.776C514.095 335.464 511.765 333.625 511.149 331.02L510.102 326.597C509.345 323.398 511.777 320.332 515.07 320.332H566.07C569.363 320.332 571.795 323.398 571.038 326.597L569.991 331.02C569.375 333.625 567.045 335.464 564.364 335.464Z" fill="white" stroke="#0B1427" stroke-width="1.2" stroke-miterlimit="10"/>
<path d="M559.358 355.722L548.496 363.488C543.584 366.283 537.558 366.283 532.645 363.488L522.411 355.668C520.616 354.297 519.433 352.277 519.117 350.043L516.929 334.595L516.678 301.222H565.359L564.658 335.607L562.892 349.791C562.595 352.173 561.314 354.324 559.358 355.722Z" fill="white" stroke="#0B1427" stroke-width="1.2" stroke-miterlimit="10"/>
<path d="M560.043 346.142L544.886 342.61C544.195 342.449 543.494 342.672 542.948 343.126C542.375 343.603 541.589 343.933 540.57 343.933C539.579 343.933 538.81 343.62 538.244 343.164C537.705 342.73 537.017 342.528 536.347 342.702L523.111 346.142L516.928 334.595L519.116 350.043C519.433 352.277 520.616 354.297 522.41 355.668L532.645 363.488C537.557 366.283 543.583 366.283 548.495 363.488L559.357 355.722C561.313 354.324 562.594 352.173 562.891 349.791L564.657 335.607L560.043 346.142Z" fill="#E7742E" stroke="#0B1427" stroke-width="1.2" stroke-miterlimit="10"/>
<path d="M553.122 281.182L554.913 275.761L520.425 281.122L510.65 301.159L516.677 333.225V311.943L525.631 303.009L540.57 309.561L555.51 303.009L564.658 311.943V335.607L570.208 301.607L566.877 290.397L559.82 286.184L561.312 281.182H553.122Z" fill="#E7742E" stroke="#0B1427" stroke-width="1.2" stroke-miterlimit="10"/>
<path d="M546.66 323.382C549.741 321.628 553.521 321.628 556.602 323.382" stroke="#0B1427" stroke-width="1.2" stroke-miterlimit="10"/>
<path d="M534.477 314.011L525.588 314.601" stroke="#0B1427" stroke-width="1.2" stroke-miterlimit="10" stroke-linecap="square"/>
<path d="M546.787 315.278L556.118 313.49" stroke="#0B1427" stroke-width="1.2" stroke-miterlimit="10" stroke-linecap="square"/>
<path d="M538.779 337.08V327.55" stroke="#0B1427" stroke-width="1.2" stroke-miterlimit="10" stroke-linecap="round" stroke-linejoin="round"/>
<path d="M524.873 323.382C527.954 321.628 531.734 321.628 534.815 323.382" stroke="#0B1427" stroke-width="1.2" stroke-miterlimit="10"/>
<path d="M532.422 350.82C536.624 347.151 544.547 347.364 548.717 350.82" stroke="#0B1427" stroke-width="1.2" stroke-miterlimit="10" stroke-linecap="round"/>
<path d="M538.523 354.629H542.552" stroke="#0B1427" stroke-width="1.2" stroke-miterlimit="10" stroke-linecap="round"/>
<path d="M576.102 407.061L574.312 391.873" stroke="#0B1427" stroke-width="1.2" stroke-miterlimit="10" stroke-linecap="round"/>
<path d="M505.039 407.061L507.725 391.873" stroke="#0B1427" stroke-width="1.2" stroke-miterlimit="10" stroke-linecap="round"/>
<path d="M546.285 342.936L546.301 342.865C546.497 342.007 546.54 341.125 546.432 340.259" stroke="#0B1427" stroke-width="1.2" stroke-miterlimit="10" stroke-linecap="round"/>
<path d="M534.857 342.936L534.841 342.865C534.644 342.003 534.602 341.116 534.711 340.246" stroke="#0B1427" stroke-width="1.2" stroke-miterlimit="10" stroke-linecap="round"/>
<path d="M553.504 324.432C553.504 325.563 552.586 326.479 551.452 326.479C550.319 326.479 549.4 325.563 549.4 324.432C549.4 323.301 550.319 322.384 551.452 322.384C552.586 322.384 553.504 323.301 553.504 324.432Z" fill="#0B1427"/>
<path d="M531.897 324.432C531.897 325.563 530.978 326.479 529.845 326.479C528.712 326.479 527.793 325.563 527.793 324.432C527.793 323.301 528.712 322.384 529.845 322.384C530.978 322.384 531.897 323.301 531.897 324.432Z" fill="#0B1427"/>
<path d="M499.069 564.679V579.527C499.069 581.662 497.773 583.585 495.792 584.39C495.792 584.39 465.08 597.25 457.675 597.742C454.642 597.943 451.716 596.589 449.91 594.15C447.718 591.188 448.41 587.004 451.441 584.903L473.689 568.965L499.069 564.679Z" fill="#E7742E" stroke="#0B1427" stroke-width="1.2" stroke-miterlimit="10" stroke-linejoin="round"/>
<path d="M456.152 597.697C455.9 597.67 455.646 597.647 455.398 597.599C455.25 597.57 455.107 597.524 454.961 597.488C454.742 597.435 454.521 597.386 454.307 597.316C454.154 597.266 454.008 597.199 453.859 597.141C453.659 597.064 453.458 596.991 453.264 596.899C453.115 596.829 452.973 596.742 452.828 596.663C452.644 596.564 452.458 596.468 452.282 596.355C452.14 596.265 452.006 596.16 451.869 596.061C451.702 595.94 451.532 595.823 451.373 595.69C451.24 595.58 451.118 595.457 450.991 595.339C450.842 595.198 450.69 595.06 450.55 594.909C450.43 594.78 450.32 594.64 450.208 594.504C450.072 594.338 449.934 594.174 449.809 593.998C449.726 593.879 449.644 593.76 449.57 593.638C449.552 593.609 449.534 593.579 449.516 593.55C448.615 592.007 448.414 590.217 448.85 588.583C448.851 588.582 448.851 588.581 448.852 588.579C448.896 588.413 448.951 588.25 449.009 588.088C449.027 588.037 449.043 587.985 449.062 587.934C449.104 587.824 449.155 587.717 449.203 587.61C449.246 587.514 449.286 587.418 449.333 587.324C449.364 587.263 449.4 587.205 449.433 587.145C449.505 587.013 449.577 586.881 449.659 586.754C449.673 586.732 449.689 586.711 449.704 586.69C450.04 586.179 450.448 585.708 450.929 585.298C450.957 585.275 450.987 585.255 451.015 585.232C451.157 585.115 451.302 584.999 451.456 584.893L454.376 582.869C457.034 581.895 459.894 584.298 462.236 587.236C465.45 591.269 462.882 597.355 457.731 597.738C457.712 597.739 457.693 597.74 457.674 597.742C457.288 597.767 456.904 597.766 456.524 597.743C456.399 597.735 456.277 597.71 456.152 597.697Z" fill="white" stroke="#0B1427" stroke-width="1.2" stroke-miterlimit="10" stroke-linejoin="round"/>
<path d="M457.396 593.557C464.801 593.065 499.069 578.864 499.069 578.864V579.527C499.069 581.662 497.773 583.585 495.792 584.39C495.792 584.39 465.08 597.25 457.674 597.742C454.642 597.943 451.716 596.589 449.91 594.15C448.676 592.483 448.356 590.429 448.853 588.577C449.053 589.059 449.399 593.327 457.396 593.557Z" fill="white" stroke="#0B1427" stroke-width="1.2" stroke-miterlimit="10" stroke-linejoin="round"/>
<path d="M473.244 579.14C470.306 576.523 468.029 575.014 464.451 575.393" stroke="#0B1427" stroke-width="1.2" stroke-miterlimit="10" stroke-linejoin="round"/>
<path d="M468.446 581.429C465.969 579.499 463.503 578.122 460.283 578.462" stroke="#0B1427" stroke-width="1.2" stroke-miterlimit="10" stroke-linejoin="round"/>
<path d="M478.344 576.409C475.234 573.453 472.527 571.913 468.619 572.326" stroke="#0B1427" stroke-width="1.2" stroke-miterlimit="10" stroke-linejoin="round"/>
<path d="M581.176 564.679V579.527C581.176 581.662 582.471 583.585 584.453 584.39C584.453 584.39 615.164 597.25 622.57 597.742C625.602 597.943 628.528 596.589 630.334 594.15C632.527 591.188 631.834 587.004 628.803 584.903L606.556 568.965L581.176 564.679Z" fill="#E7742E" stroke="#0B1427" stroke-width="1.2" stroke-miterlimit="10" stroke-linejoin="round"/>
<path d="M624.092 597.697C624.344 597.67 624.598 597.647 624.846 597.599C624.994 597.57 625.137 597.524 625.283 597.488C625.502 597.435 625.723 597.386 625.937 597.316C626.09 597.266 626.235 597.199 626.385 597.141C626.585 597.064 626.786 596.991 626.98 596.899C627.129 596.829 627.271 596.742 627.416 596.663C627.6 596.564 627.786 596.468 627.962 596.355C628.104 596.265 628.238 596.16 628.375 596.061C628.542 595.94 628.712 595.823 628.871 595.69C629.004 595.58 629.126 595.457 629.252 595.339C629.402 595.198 629.554 595.06 629.694 594.909C629.814 594.78 629.924 594.64 630.036 594.504C630.172 594.338 630.31 594.174 630.435 593.998C630.518 593.879 630.6 593.76 630.674 593.638C630.692 593.609 630.71 593.579 630.728 593.55C631.629 592.007 631.83 590.217 631.394 588.583C631.393 588.582 631.393 588.581 631.392 588.579C631.348 588.413 631.293 588.25 631.235 588.088C631.217 588.037 631.201 587.985 631.182 587.934C631.14 587.824 631.089 587.717 631.041 587.61C630.998 587.514 630.958 587.418 630.911 587.324C630.88 587.263 630.844 587.205 630.811 587.145C630.739 587.013 630.667 586.881 630.585 586.754C630.571 586.732 630.555 586.711 630.54 586.69C630.204 586.179 629.796 585.708 629.314 585.298C629.287 585.275 629.257 585.255 629.229 585.232C629.087 585.115 628.942 584.999 628.788 584.893L625.868 582.869C623.21 581.895 620.35 584.298 618.008 587.236C614.794 591.269 617.362 597.355 622.513 597.738C622.532 597.739 622.551 597.74 622.57 597.742C622.956 597.767 623.34 597.766 623.72 597.743C623.845 597.735 623.967 597.71 624.092 597.697Z" fill="white" stroke="#0B1427" stroke-width="1.2" stroke-miterlimit="10" stroke-linejoin="round"/>
<path d="M622.849 593.557C615.443 593.065 581.176 578.864 581.176 578.864V579.527C581.176 581.662 582.471 583.585 584.453 584.39C584.453 584.39 615.164 597.25 622.57 597.742C625.602 597.943 628.528 596.589 630.334 594.15C631.568 592.483 631.888 590.429 631.392 588.577C631.192 589.059 630.845 593.327 622.849 593.557Z" fill="white" stroke="#0B1427" stroke-width="1.2" stroke-miterlimit="10" stroke-linejoin="round"/>
<path d="M579.684 457.442H540.123V478.466L579.684 488.293V568.871L588.936 574.231L611.617 568.871V488.293V473.849C611.617 464.788 604.255 457.442 595.174 457.442H579.684Z" fill="#0B1427" stroke="#0B1427" stroke-width="1.2" stroke-miterlimit="10" stroke-linejoin="round"/>
<path d="M501.457 457.442H540.122V478.466L501.457 488.293V568.871L491.31 574.231L469.523 568.871V488.293V473.849C469.523 464.788 476.885 457.442 485.967 457.442H501.457Z" fill="#0B1427" stroke="#0B1427" stroke-width="1.2" stroke-miterlimit="10" stroke-linejoin="round"/>
<path d="M490.414 556.363V500.044" stroke="#0B1427" stroke-width="1.2" stroke-miterlimit="10" stroke-linejoin="round"/>
<path d="M490.414 574.231V563.699" stroke="#0B1427" stroke-width="1.2" stroke-miterlimit="10" stroke-linejoin="round"/>
<path d="M501.457 488.293V479.67" stroke="#0B1427" stroke-width="1.2" stroke-miterlimit="10" stroke-linejoin="round"/>
<path d="M588.936 556.363V500.044" stroke="#0B1427" stroke-width="1.2" stroke-miterlimit="10" stroke-linejoin="round"/>
<path d="M588.936 574.231V563.699" stroke="#0B1427" stroke-width="1.2" stroke-miterlimit="10" stroke-linejoin="round"/>
<path d="M579.682 488.293V479.67" stroke="#0B1427" stroke-width="1.2" stroke-miterlimit="10" stroke-linejoin="round"/>
<path d="M607 579.14C609.938 576.523 612.214 575.014 615.792 575.393" stroke="#0B1427" stroke-width="1.2" stroke-miterlimit="10" stroke-linejoin="round"/>
<path d="M611.799 581.429C614.276 579.499 616.742 578.122 619.962 578.462" stroke="#0B1427" stroke-width="1.2" stroke-miterlimit="10" stroke-linejoin="round"/>
<path d="M601.898 576.409C605.009 573.453 607.715 571.913 611.624 572.326" stroke="#0B1427" stroke-width="1.2" stroke-miterlimit="10" stroke-linejoin="round"/>
<path d="M592.617 398.102H488.522C485.17 398.102 482.61 401.086 483.127 404.39L491.096 455.329H590.042L598.011 404.39C598.528 401.086 595.968 398.102 592.617 398.102Z" fill="#DEDEDE" stroke="#0B1427" stroke-width="1.2" stroke-miterlimit="10"/>
<path d="M597.291 451.188H483.848C483.848 455.706 487.519 459.37 492.047 459.37H589.091C593.62 459.37 597.291 455.706 597.291 451.188Z" fill="#DEDEDE" stroke="#0B1427" stroke-width="1.2" stroke-miterlimit="10"/>
<path d="M546.853 428.502C546.853 431.268 544.039 433.51 540.568 433.51C537.097 433.51 534.283 431.268 534.283 428.502C534.283 425.736 537.097 423.494 540.568 423.494C544.039 423.494 546.853 425.736 546.853 428.502Z" fill="white"/>
<path d="M548.91 580.324H571.309" stroke="#0B1427" stroke-width="1.2" stroke-miterlimit="10"/>
<path d="M564.027 589.639H580.925" stroke="#0B1427" stroke-width="1.2" stroke-miterlimit="10"/>
<path d="M517.069 589.639H500.51" stroke="#0B1427" stroke-width="1.2" stroke-miterlimit="10"/>
<path d="M507.512 580.327H533.155" stroke="#0B1427" stroke-width="1.2" stroke-miterlimit="10"/>
<path d="M436.415 548.408H428.143" stroke="#0B1427" stroke-width="1.2" stroke-miterlimit="10"/>
<path d="M441.968 557.722H409.883" stroke="#0B1427" stroke-width="1.2" stroke-miterlimit="10"/>
<path d="M329.422 586.086H360.865" stroke="#0B1427" stroke-width="1.2" stroke-miterlimit="10"/>
<path d="M347.568 576.774H298.877" stroke="#0B1427" stroke-width="1.2" stroke-miterlimit="10"/>
<path d="M505.456 155.2H492.156V140H482.756V155.2H455.856L490.156 111H479.356L443.556 156.8V163.8H482.456V181H492.156V163.8H505.456V155.2ZM540.05 181.8C556.35 181.8 568.55 168.8 568.55 146C568.55 123.2 556.35 110.2 540.05 110.2C523.65 110.2 511.45 123.2 511.45 146C511.45 168.8 523.65 181.8 540.05 181.8ZM540.05 172.9C529.05 172.9 521.45 163.9 521.45 146C521.45 128.1 529.05 119.1 540.05 119.1C550.95 119.1 558.55 128.1 558.55 146C558.55 163.9 550.95 172.9 540.05 172.9ZM639.05 155.2H625.75V140H616.35V155.2H589.45L623.75 111H612.95L577.15 156.8V163.8H616.05V181H625.75V163.8H639.05V155.2Z" fill="#E7742E"/>
<path d="M446.786 215.8V234.592L431.666 215.8H428.714V241H432.314V222.208L447.434 241H450.386V215.8H446.786ZM469.304 241.288C476.972 241.288 482.66 235.816 482.66 228.4C482.66 220.984 476.972 215.512 469.304 215.512C461.564 215.512 455.876 221.02 455.876 228.4C455.876 235.78 461.564 241.288 469.304 241.288ZM469.304 238.084C463.652 238.084 459.476 233.98 459.476 228.4C459.476 222.82 463.652 218.716 469.304 218.716C474.884 218.716 479.06 222.82 479.06 228.4C479.06 233.98 474.884 238.084 469.304 238.084ZM492.815 241H496.379V218.932H505.019V215.8H484.175V218.932H492.815V241ZM536.392 218.932V215.8H518.608V241H522.208V230.812H534.844V227.716H522.208V218.932H536.392ZM552.554 241.288C560.222 241.288 565.91 235.816 565.91 228.4C565.91 220.984 560.222 215.512 552.554 215.512C544.814 215.512 539.126 221.02 539.126 228.4C539.126 235.78 544.814 241.288 552.554 241.288ZM552.554 238.084C546.902 238.084 542.726 233.98 542.726 228.4C542.726 222.82 546.902 218.716 552.554 218.716C558.134 218.716 562.31 222.82 562.31 228.4C562.31 233.98 558.134 238.084 552.554 238.084ZM581.853 241.288C588.513 241.288 592.509 237.436 592.509 230.128V215.8H589.017V229.984C589.017 235.564 586.425 238.084 581.889 238.084C577.353 238.084 574.797 235.564 574.797 229.984V215.8H571.197V230.128C571.197 237.436 575.229 241.288 581.853 241.288ZM617.961 215.8V234.592L602.841 215.8H599.889V241H603.489V222.208L618.609 241H621.561V215.8H617.961ZM629.104 241H639.724C647.824 241 653.332 235.888 653.332 228.4C653.332 220.912 647.824 215.8 639.724 215.8H629.104V241ZM632.704 237.868V218.932H639.508C645.736 218.932 649.732 222.748 649.732 228.4C649.732 234.052 645.736 237.868 639.508 237.868H632.704Z" fill="#0B1427"/>
</svg>
